<svg xmlns="http://www.w3.org/2000/svg" xmlns:svg="http://www.w3.org/2000/svg" id="svg2" width="478.754" height="470.793" version="1.1"><defs id="defs4"><marker id="Arrow1Mend" orient="auto" refX="0" refY="0" style="overflow:visible"><path id="path3933" d="M 0,0 5,-5 -12.5,0 5,5 0,0 z" transform="matrix(-0.4,0,0,-0.4,-4,0)" style="fill-rule:evenodd;stroke:#000;stroke-width:1pt"/></marker></defs><metadata id="metadata7"/><g id="layer1" transform="translate(-135.88919,-431.1479)"><path style="fill:none;stroke:#000;stroke-width:3;stroke-linecap:round;stroke-linejoin:round;stroke-miterlimit:4;stroke-opacity:1;stroke-dasharray:none" id="path2985" d="m 211.42857,442.6479 0,434.28571"/><path style="fill:none;stroke:#000;stroke-width:3;stroke-linecap:round;stroke-linejoin:round;stroke-miterlimit:4;stroke-opacity:1;stroke-dasharray:none" id="path2985-2" d="m 603.14285,833.79076 -434.28571,0"/><path style="fill:#000;fill-opacity:1;stroke:none" id="path3791" d="m 273.14816,245.48337 c 0,6.90356 -5.59644,12.5 -12.5,12.5 -6.90356,0 -12.5,-5.59644 -12.5,-12.5 0,-6.90356 5.59644,-12.5 12.5,-12.5 6.90356,0 12.5,5.59644 12.5,12.5 z" transform="matrix(0.33333333,0,0,0.33333333,170.25667,489.46714)"/><path style="fill:#000;fill-opacity:1;stroke:none" id="path3791-6" d="m 273.14816,245.48337 c 0,6.90356 -5.59644,12.5 -12.5,12.5 -6.90356,0 -12.5,-5.59644 -12.5,-12.5 0,-6.90356 5.59644,-12.5 12.5,-12.5 6.90356,0 12.5,5.59644 12.5,12.5 z" transform="matrix(0.33333333,0,0,0.33333333,193.38043,558.69229)"/><path style="fill:#000;fill-opacity:1;stroke:none" id="path3791-9" d="m 273.14816,245.48337 c 0,6.90356 -5.59644,12.5 -12.5,12.5 -6.90356,0 -12.5,-5.59644 -12.5,-12.5 0,-6.90356 5.59644,-12.5 12.5,-12.5 6.90356,0 12.5,5.59644 12.5,12.5 z" transform="matrix(0.33333333,0,0,0.33333333,278.90675,536.32387)"/><path style="fill:#000;fill-opacity:1;stroke:none" id="path3791-1" d="m 273.14816,245.48337 c 0,6.90356 -5.59644,12.5 -12.5,12.5 -6.90356,0 -12.5,-5.59644 -12.5,-12.5 0,-6.90356 5.59644,-12.5 12.5,-12.5 6.90356,0 12.5,5.59644 12.5,12.5 z" transform="matrix(0.33333333,0,0,0.33333333,326.27517,573.16597)"/><path style="fill:#000;fill-opacity:1;stroke:none" id="path3791-0" d="m 273.14816,245.48337 c 0,6.90356 -5.59644,12.5 -12.5,12.5 -6.90356,0 -12.5,-5.59644 -12.5,-12.5 0,-6.90356 5.59644,-12.5 12.5,-12.5 6.90356,0 12.5,5.59644 12.5,12.5 z" transform="matrix(0.33333333,0,0,0.33333333,256.53833,574.48176)"/><path style="fill:#000;fill-opacity:1;stroke:none" id="path3791-3" d="m 273.14816,245.48337 c 0,6.90356 -5.59644,12.5 -12.5,12.5 -6.90356,0 -12.5,-5.59644 -12.5,-12.5 0,-6.90356 5.59644,-12.5 12.5,-12.5 6.90356,0 12.5,5.59644 12.5,12.5 z" transform="matrix(0.33333333,0,0,0.33333333,293.38044,611.32387)"/><path style="fill:#000;fill-opacity:1;stroke:none" id="path3791-2" d="m 273.14816,245.48337 c 0,6.90356 -5.59644,12.5 -12.5,12.5 -6.90356,0 -12.5,-5.59644 -12.5,-12.5 0,-6.90356 5.59644,-12.5 12.5,-12.5 6.90356,0 12.5,5.59644 12.5,12.5 z" transform="matrix(0.33333333,0,0,0.33333333,317.06464,527.11335)"/><path style="fill:#000;fill-opacity:1;stroke:none" id="path3791-26" d="m 273.14816,245.48337 c 0,6.90356 -5.59644,12.5 -12.5,12.5 -6.90356,0 -12.5,-5.59644 -12.5,-12.5 0,-6.90356 5.59644,-12.5 12.5,-12.5 6.90356,0 12.5,5.59644 12.5,12.5 z" transform="matrix(0.33333333,0,0,0.33333333,230.22253,624.48177)"/><path style="fill:#000;fill-opacity:1;stroke:none" id="path3791-39" d="m 273.14816,245.48337 c 0,6.90356 -5.59644,12.5 -12.5,12.5 -6.90356,0 -12.5,-5.59644 -12.5,-12.5 0,-6.90356 5.59644,-12.5 12.5,-12.5 6.90356,0 12.5,5.59644 12.5,12.5 z" transform="matrix(0.33333333,0,0,0.33333333,263.11728,470.5344)"/><path style="fill:none;stroke:#000;stroke-width:6;stroke-miterlimit:4;stroke-opacity:1;stroke-dasharray:none" id="path3791-25" d="m 273.14816,245.48337 c 0,6.90356 -5.59644,12.5 -12.5,12.5 -6.90356,0 -12.5,-5.59644 -12.5,-12.5 0,-6.90356 5.59644,-12.5 12.5,-12.5 6.90356,0 12.5,5.59644 12.5,12.5 z" transform="matrix(0.33333333,0,0,0.33333333,382.47645,534.86187)"/><path style="fill:none;stroke:#000;stroke-width:6;stroke-miterlimit:4;stroke-opacity:1;stroke-dasharray:none" id="path3791-6-7" d="m 273.14816,245.48337 c 0,6.90356 -5.59644,12.5 -12.5,12.5 -6.90356,0 -12.5,-5.59644 -12.5,-12.5 0,-6.90356 5.59644,-12.5 12.5,-12.5 6.90356,0 12.5,5.59644 12.5,12.5 z" transform="matrix(0.33333333,0,0,0.33333333,376.65284,689.61334)"/><path style="fill:none;stroke:#000;stroke-width:6;stroke-miterlimit:4;stroke-opacity:1;stroke-dasharray:none" id="path3791-9-7" d="m 273.14816,245.48337 c 0,6.90356 -5.59644,12.5 -12.5,12.5 -6.90356,0 -12.5,-5.59644 -12.5,-12.5 0,-6.90356 5.59644,-12.5 12.5,-12.5 6.90356,0 12.5,5.59644 12.5,12.5 z" transform="matrix(0.33333333,0,0,0.33333333,345.0739,618.56071)"/><path style="fill:none;stroke:#000;stroke-width:6;stroke-miterlimit:4;stroke-opacity:1;stroke-dasharray:none" id="path3791-1-1" d="m 273.14816,245.48337 c 0,6.90356 -5.59644,12.5 -12.5,12.5 -6.90356,0 -12.5,-5.59644 -12.5,-12.5 0,-6.90356 5.59644,-12.5 12.5,-12.5 6.90356,0 12.5,5.59644 12.5,12.5 z" transform="matrix(0.33333333,0,0,0.33333333,472.70548,671.19228)"/><path style="fill:none;stroke:#000;stroke-width:6;stroke-miterlimit:4;stroke-opacity:1;stroke-dasharray:none" id="path3791-0-2" d="m 273.14816,245.48337 c 0,6.90356 -5.59644,12.5 -12.5,12.5 -6.90356,0 -12.5,-5.59644 -12.5,-12.5 0,-6.90356 5.59644,-12.5 12.5,-12.5 6.90356,0 12.5,5.59644 12.5,12.5 z" transform="matrix(0.33333333,0,0,0.33333333,289.81074,668.5607)"/><path style="fill:none;stroke:#000;stroke-width:6;stroke-miterlimit:4;stroke-opacity:1;stroke-dasharray:none" id="path3791-3-4" d="m 273.14816,245.48337 c 0,6.90356 -5.59644,12.5 -12.5,12.5 -6.90356,0 -12.5,-5.59644 -12.5,-12.5 0,-6.90356 5.59644,-12.5 12.5,-12.5 6.90356,0 12.5,5.59644 12.5,12.5 z" transform="matrix(0.33333333,0,0,0.33333333,421.38969,629.08702)"/><path style="fill:none;stroke:#000;stroke-width:6;stroke-miterlimit:4;stroke-opacity:1;stroke-dasharray:none" id="path3791-2-6" d="m 273.14816,245.48337 c 0,6.90356 -5.59644,12.5 -12.5,12.5 -6.90356,0 -12.5,-5.59644 -12.5,-12.5 0,-6.90356 5.59644,-12.5 12.5,-12.5 6.90356,0 12.5,5.59644 12.5,12.5 z" transform="matrix(0.33333333,0,0,0.33333333,430.60021,564.61334)"/><path style="fill:none;stroke:#000;stroke-width:6;stroke-miterlimit:4;stroke-opacity:1;stroke-dasharray:none" id="path3791-26-9" d="m 273.14816,245.48337 c 0,6.90356 -5.59644,12.5 -12.5,12.5 -6.90356,0 -12.5,-5.59644 -12.5,-12.5 0,-6.90356 5.59644,-12.5 12.5,-12.5 6.90356,0 12.5,5.59644 12.5,12.5 z" transform="matrix(0.33333333,0,0,0.33333333,326.65284,697.50808)"/><path style="fill:none;stroke:#000;stroke-width:6;stroke-miterlimit:4;stroke-opacity:1;stroke-dasharray:none" id="path3791-39-6" d="m 273.14816,245.48337 c 0,6.90356 -5.59644,12.5 -12.5,12.5 -6.90356,0 -12.5,-5.59644 -12.5,-12.5 0,-6.90356 5.59644,-12.5 12.5,-12.5 6.90356,0 12.5,5.59644 12.5,12.5 z" transform="matrix(0.33333333,0,0,0.33333333,475.33706,515.92913)"/><path style="fill:none;stroke:#000;stroke-width:3;stroke-linecap:round;stroke-linejoin:round;stroke-miterlimit:4;stroke-opacity:1;stroke-dasharray:3,6;stroke-dashoffset:0" id="path3902" d="M 335.52631,782.62534 527.63157,520.78324"/><text style="font-size:40px;font-style:normal;font-weight:400;line-height:125%;letter-spacing:0;word-spacing:0;fill:#000;fill-opacity:1;stroke:none;font-family:Sans" id="text3904" x="305.263" y="485.257" xml:space="preserve"><tspan id="tspan3906" x="305.263" y="485.257">w<tspan style="font-size:65.00091553%;baseline-shift:sub" id="tspan3908">1</tspan>x<tspan style="font-size:65.00091553%;baseline-shift:sub" id="tspan3910">1</tspan>+w<tspan style="font-size:65.00091553%;baseline-shift:sub" id="tspan3912">2</tspan>x<tspan style="font-size:65.00091553%;baseline-shift:sub" id="tspan3914">2</tspan>+w<tspan style="font-size:65.00091553%;baseline-shift:sub" id="tspan3916">0</tspan></tspan></text><path style="fill:none;stroke:#000;stroke-width:2;stroke-linecap:round;stroke-linejoin:round;stroke-miterlimit:4;stroke-opacity:1;stroke-dasharray:none;marker-end:url(#Arrow1Mend)" id="path3918" d="m 390.78947,514.20429 c 2.94645,68.38038 40.5381,7.83586 77.63158,46.05264"/><text style="font-size:40px;font-style:normal;font-weight:400;line-height:125%;letter-spacing:0;word-spacing:0;fill:#000;fill-opacity:1;stroke:none;font-family:Sans" id="text4364" x="546.053" y="883.941" xml:space="preserve"><tspan id="tspan4366" x="546.053" y="883.941">x<tspan style="font-size:65.00091553%;baseline-shift:sub" id="tspan4368">1</tspan></tspan></text><text style="font-size:40px;font-style:normal;font-weight:400;line-height:125%;letter-spacing:0;word-spacing:0;fill:#000;fill-opacity:1;stroke:none;font-family:Sans" id="text4370" x="144.737" y="481.31" xml:space="preserve"><tspan id="tspan4372" x="144.737" y="481.31">x<tspan style="font-size:65.00091553%;baseline-shift:sub" id="tspan4374">2</tspan></tspan></text></g></svg>