<svg xmlns="http://www.w3.org/2000/svg" xmlns:svg="http://www.w3.org/2000/svg" id="svg2" width="662.852" height="488.534" version="1.1"><metadata id="metadata7"/><g id="layer1" transform="translate(-141.48392,-433.3269)"><text id="text4165" x="148.845" y="578.785" xml:space="preserve" style="font-size:40px;font-style:normal;font-weight:400;line-height:125%;letter-spacing:0;word-spacing:0;fill:#000;fill-opacity:1;stroke:none;font-family:Sans"><tspan style="font-size:28px" id="tspan4167" x="148.845" y="578.785">input 1</tspan></text><text id="text4169" x="148.845" y="660.397" xml:space="preserve" style="font-size:40px;font-style:normal;font-weight:400;line-height:125%;letter-spacing:0;word-spacing:0;fill:#000;fill-opacity:1;stroke:none;font-family:Sans"><tspan style="font-size:28px" id="tspan4171" x="148.845" y="660.397">input 2</tspan></text><text id="text4173" x="148.49" y="724.209" xml:space="preserve" style="font-size:40px;font-style:normal;font-weight:400;line-height:125%;letter-spacing:0;word-spacing:0;fill:#000;fill-opacity:1;stroke:none;font-family:Sans"><tspan style="font-size:28px" id="tspan4175" x="148.49" y="724.209">...</tspan></text><text id="text4177" x="148.845" y="799.997" xml:space="preserve" style="font-size:40px;font-style:normal;font-weight:400;line-height:125%;letter-spacing:0;word-spacing:0;fill:#000;fill-opacity:1;stroke:none;font-family:Sans"><tspan style="font-size:28px" id="tspan4179" x="148.845" y="799.997">input k</tspan></text><text id="text4181" x="677.633" y="539.074" xml:space="preserve" style="font-size:40px;font-style:normal;font-weight:400;line-height:125%;letter-spacing:0;word-spacing:0;fill:#000;fill-opacity:1;stroke:none;font-family:Sans"><tspan style="font-size:28px" id="tspan4183" x="677.633" y="539.074">output 1</tspan></text><text id="text4185" x="677.633" y="694.995" xml:space="preserve" style="font-size:40px;font-style:normal;font-weight:400;line-height:125%;letter-spacing:0;word-spacing:0;fill:#000;fill-opacity:1;stroke:none;font-family:Sans"><tspan style="font-size:28px" id="tspan4187" x="677.633" y="694.995">output 2</tspan></text><text id="text4189" x="723.229" y="767.401" xml:space="preserve" style="font-size:40px;font-style:normal;font-weight:400;line-height:125%;letter-spacing:0;word-spacing:0;fill:#000;fill-opacity:1;stroke:none;font-family:Sans"><tspan style="font-size:28px" id="tspan4193" x="723.229" y="767.401">...</tspan></text><text id="text4197" x="677.633" y="850.171" xml:space="preserve" style="font-size:40px;font-style:normal;font-weight:400;line-height:125%;letter-spacing:0;word-spacing:0;fill:#000;fill-opacity:1;stroke:none;font-family:Sans"><tspan style="font-size:28px" id="tspan4199" x="677.633" y="850.171">output n</tspan></text><path id="path2985" d="m 817.14288,372.66592 c 0,88.36556 -129.83742,160 -290,160 -160.16257,0 -290,-71.63444 -290,-160 0,-88.36556 129.83743,-160 290,-160 160.16258,0 290,71.63444 290,160 z" transform="matrix(0.4225503,0,0,0.4225503,265.03766,374.31006)" style="fill:none;stroke:#000;stroke-width:4.73316431;stroke-miterlimit:4;stroke-opacity:1;stroke-dasharray:none"/><path id="path3755" d="m 447.40336,468.95045 0,126.70532" style="fill:none;stroke:#000;stroke-width:2;stroke-linecap:butt;stroke-linejoin:miter;stroke-miterlimit:4;stroke-opacity:1;stroke-dasharray:none"/><path id="path3757" d="m 529.63165,468.40432 0,127.4986" style="fill:none;stroke:#000;stroke-width:2;stroke-linecap:butt;stroke-linejoin:miter;stroke-miterlimit:4;stroke-opacity:1;stroke-dasharray:none"/><text id="text3795" x="456.189" y="543.435" xml:space="preserve" style="font-size:37.12155533px;font-style:normal;font-weight:400;line-height:125%;letter-spacing:0;word-spacing:0;fill:#000;fill-opacity:1;stroke:none;font-family:Sans"><tspan id="tspan3797" x="456.189" y="543.435">f(Σ)</tspan></text><path id="path3906" d="m 418.35494,444.3269 0,56.76073" style="fill:none;stroke:#000;stroke-width:2;stroke-linecap:round;stroke-linejoin:round;stroke-miterlimit:4;stroke-opacity:1;stroke-dasharray:none"/><text id="text4088" x="545.675" y="522.207" xml:space="preserve" style="font-size:16.90201187px;font-style:normal;font-weight:400;line-height:125%;letter-spacing:0;word-spacing:0;fill:#000;fill-opacity:1;stroke:none;font-family:Sans"><tspan style="text-align:center;text-anchor:middle" id="tspan4090" x="545.675" y="522.207">0</tspan><tspan style="font-size:8.45100594px;text-align:center;text-anchor:middle" id="tspan4092" x="545.675" y="534.911">or</tspan><tspan style="text-align:center;text-anchor:middle" id="tspan4121" x="545.675" y="553.898">1</tspan></text><path style="fill:none;stroke:#000;stroke-width:2;stroke-linecap:round;stroke-linejoin:round;stroke-miterlimit:4;stroke-opacity:1;stroke-dasharray:none" id="path4094-8" d="m 504.90076,555.43438 -16.90746,0 0,15.69978 m -17.33,0 17.31043,0"/><path id="path4214" d="m 575.00608,531.78014 81.81818,0" style="fill:none;stroke:#000;stroke-width:2;stroke-linecap:butt;stroke-linejoin:miter;stroke-miterlimit:4;stroke-opacity:1;stroke-dasharray:none"/><path id="path2985-3" d="m 817.14288,372.66592 c 0,88.36556 -129.83742,160 -290,160 -160.16257,0 -290,-71.63444 -290,-160 0,-88.36556 129.83743,-160 290,-160 160.16258,0 290,71.63444 290,160 z" transform="matrix(0.4225503,0,0,0.4225503,265.03766,530.04642)" style="fill:none;stroke:#000;stroke-width:4.73316431;stroke-miterlimit:4;stroke-opacity:1;stroke-dasharray:none"/><path id="path3755-6" d="m 447.40336,624.68681 0,126.70532" style="fill:none;stroke:#000;stroke-width:2;stroke-linecap:butt;stroke-linejoin:miter;stroke-miterlimit:4;stroke-opacity:1;stroke-dasharray:none"/><path id="path3757-9" d="m 529.63165,624.14068 0,127.4986" style="fill:none;stroke:#000;stroke-width:2;stroke-linecap:butt;stroke-linejoin:miter;stroke-miterlimit:4;stroke-opacity:1;stroke-dasharray:none"/><text id="text3795-7" x="456.189" y="699.171" xml:space="preserve" style="font-size:37.12155533px;font-style:normal;font-weight:400;line-height:125%;letter-spacing:0;word-spacing:0;fill:#000;fill-opacity:1;stroke:none;font-family:Sans"><tspan id="tspan3797-7" x="456.189" y="699.171">f(Σ)</tspan></text><path id="path3906-4" d="m 418.35494,600.06326 0,56.76073" style="fill:none;stroke:#000;stroke-width:2;stroke-linecap:round;stroke-linejoin:round;stroke-miterlimit:4;stroke-opacity:1;stroke-dasharray:none"/><text id="text4088-8" x="545.675" y="677.943" xml:space="preserve" style="font-size:16.90201187px;font-style:normal;font-weight:400;line-height:125%;letter-spacing:0;word-spacing:0;fill:#000;fill-opacity:1;stroke:none;font-family:Sans"><tspan style="text-align:center;text-anchor:middle" id="tspan4090-1" x="545.675" y="677.943">0</tspan><tspan style="font-size:8.45100594px;text-align:center;text-anchor:middle" id="tspan4092-5" x="545.675" y="690.647">or</tspan><tspan style="text-align:center;text-anchor:middle" id="tspan4121-1" x="545.675" y="709.634">1</tspan></text><path style="fill:none;stroke:#000;stroke-width:2;stroke-linecap:round;stroke-linejoin:round;stroke-miterlimit:4;stroke-opacity:1;stroke-dasharray:none" id="path4094-8-3" d="m 504.90076,711.17074 -16.90746,0 0,15.69978 m -17.33,0 17.31043,0"/><path id="path4214-4" d="m 575.00608,687.5165 81.81818,0" style="fill:none;stroke:#000;stroke-width:2;stroke-linecap:butt;stroke-linejoin:miter;stroke-miterlimit:4;stroke-opacity:1;stroke-dasharray:none"/><path id="path2985-3-0" d="m 817.14288,372.66592 c 0,88.36556 -129.83742,160 -290,160 -160.16257,0 -290,-71.63444 -290,-160 0,-88.36556 129.83743,-160 290,-160 160.16258,0 290,71.63444 290,160 z" transform="matrix(0.4225503,0,0,0.4225503,265.03766,685.78279)" style="fill:none;stroke:#000;stroke-width:4.73316431;stroke-miterlimit:4;stroke-opacity:1;stroke-dasharray:none"/><path id="path3755-6-3" d="m 447.40336,780.42318 0,126.70532" style="fill:none;stroke:#000;stroke-width:2;stroke-linecap:butt;stroke-linejoin:miter;stroke-miterlimit:4;stroke-opacity:1;stroke-dasharray:none"/><path id="path3757-9-9" d="m 529.63165,779.87705 0,127.4986" style="fill:none;stroke:#000;stroke-width:2;stroke-linecap:butt;stroke-linejoin:miter;stroke-miterlimit:4;stroke-opacity:1;stroke-dasharray:none"/><text id="text3795-7-3" x="456.189" y="854.908" xml:space="preserve" style="font-size:37.12155533px;font-style:normal;font-weight:400;line-height:125%;letter-spacing:0;word-spacing:0;fill:#000;fill-opacity:1;stroke:none;font-family:Sans"><tspan id="tspan3797-7-2" x="456.189" y="854.908">f(Σ)</tspan></text><path id="path3906-4-6" d="m 418.35494,755.79963 0,56.76073" style="fill:none;stroke:#000;stroke-width:2;stroke-linecap:round;stroke-linejoin:round;stroke-miterlimit:4;stroke-opacity:1;stroke-dasharray:none"/><text id="text4088-8-3" x="545.675" y="833.679" xml:space="preserve" style="font-size:16.90201187px;font-style:normal;font-weight:400;line-height:125%;letter-spacing:0;word-spacing:0;fill:#000;fill-opacity:1;stroke:none;font-family:Sans"><tspan style="text-align:center;text-anchor:middle" id="tspan4090-1-9" x="545.675" y="833.679">0</tspan><tspan style="font-size:8.45100594px;text-align:center;text-anchor:middle" id="tspan4092-5-7" x="545.675" y="846.383">or</tspan><tspan style="text-align:center;text-anchor:middle" id="tspan4121-1-5" x="545.675" y="865.371">1</tspan></text><path style="fill:none;stroke:#000;stroke-width:2;stroke-linecap:round;stroke-linejoin:round;stroke-miterlimit:4;stroke-opacity:1;stroke-dasharray:none" id="path4094-8-3-1" d="m 504.90076,866.90711 -16.90746,0 0,15.69978 m -17.33,0 17.31043,0"/><path id="path4214-4-6" d="m 575.00608,843.25287 81.81818,0" style="fill:none;stroke:#000;stroke-width:2;stroke-linecap:butt;stroke-linejoin:miter;stroke-miterlimit:4;stroke-opacity:1;stroke-dasharray:none"/><path id="path4427" d="M 307.90721,113.51059 146.10086,159.21366 307.58517,268.46682" transform="translate(110.96645,409.62347)" style="fill:none;stroke:#000;stroke-width:2;stroke-linecap:butt;stroke-linejoin:miter;stroke-miterlimit:4;stroke-opacity:1;stroke-dasharray:none"/><path id="path4429" d="M 145.584,159.17462 308.195,424.84176" transform="translate(110.96645,409.62347)" style="fill:none;stroke:#000;stroke-width:2;stroke-linecap:butt;stroke-linejoin:miter;stroke-miterlimit:4;stroke-opacity:1;stroke-dasharray:none"/><path id="path4431" d="M 307.90891,122.09754 146.9697,240.37348 307.31791,277.56714" transform="translate(110.96645,409.62347)" style="fill:none;stroke:#000;stroke-width:2;stroke-linecap:butt;stroke-linejoin:miter;stroke-miterlimit:4;stroke-opacity:1;stroke-dasharray:none"/><path id="path4433" d="M 146.60929,240.57646 307.6134,433.61834" transform="translate(110.96645,409.62347)" style="fill:none;stroke:#000;stroke-width:2;stroke-linecap:butt;stroke-linejoin:miter;stroke-miterlimit:4;stroke-opacity:1;stroke-dasharray:none"/><path id="path4435" d="M 308.2044,130.87413 143.93939,381.28257 307.28966,286.95355" transform="translate(110.96645,409.62347)" style="fill:none;stroke:#000;stroke-width:2;stroke-linecap:butt;stroke-linejoin:miter;stroke-miterlimit:4;stroke-opacity:1;stroke-dasharray:none"/><path id="path4437" d="m 143.70396,380.89428 163.26197,61.463" transform="translate(110.96645,409.62347)" style="fill:none;stroke:#000;stroke-width:2;stroke-linecap:butt;stroke-linejoin:miter;stroke-miterlimit:4;stroke-opacity:1;stroke-dasharray:none"/></g></svg>