<svg xmlns="http://www.w3.org/2000/svg" xmlns:svg="http://www.w3.org/2000/svg" id="svg2" width="512.816" height="515.374" version="1.1"><defs id="defs4"><marker id="Arrow1Mend" orient="auto" refX="0" refY="0" style="overflow:visible"><path id="path3933" d="M 0,0 5,-5 -12.5,0 5,5 0,0 z" transform="matrix(-0.4,0,0,-0.4,-4,0)" style="fill-rule:evenodd;stroke:#000;stroke-width:1pt"/></marker></defs><metadata id="metadata7"/><g id="layer1" transform="translate(-135.88919,-406.23065)"><path style="fill:none;stroke:#000;stroke-width:3;stroke-linecap:round;stroke-linejoin:round;stroke-miterlimit:4;stroke-opacity:1;stroke-dasharray:none" id="path2985" d="m 211.42857,442.6479 0,434.28571"/><path style="fill:none;stroke:#000;stroke-width:3;stroke-linecap:round;stroke-linejoin:round;stroke-miterlimit:4;stroke-opacity:1;stroke-dasharray:none" id="path2985-2" d="m 603.14285,833.79076 -434.28571,0"/><path style="fill:#000;fill-opacity:1;stroke:none" id="path3791-6" d="m 273.14816,245.48337 c 0,6.90356 -5.59644,12.5 -12.5,12.5 -6.90356,0 -12.5,-5.59644 -12.5,-12.5 0,-6.90356 5.59644,-12.5 12.5,-12.5 6.90356,0 12.5,5.59644 12.5,12.5 z" transform="matrix(1.122807,0,0,1.122807,269.8424,556.96858)"/><text style="font-size:40px;font-style:normal;font-weight:400;line-height:125%;letter-spacing:0;word-spacing:0;fill:#000;fill-opacity:1;stroke:none;font-family:Sans" id="text4364" x="546.053" y="883.941" xml:space="preserve"><tspan id="tspan4366" x="546.053" y="883.941">x<tspan style="font-size:65.00091553%;baseline-shift:sub" id="tspan4368">1</tspan></tspan></text><text style="font-size:40px;font-style:normal;font-weight:400;line-height:125%;letter-spacing:0;word-spacing:0;fill:#000;fill-opacity:1;stroke:none;font-family:Sans" id="text4370" x="144.737" y="481.31" xml:space="preserve"><tspan id="tspan4372" x="144.737" y="481.31">x<tspan style="font-size:65.00091553%;baseline-shift:sub" id="tspan4374">2</tspan></tspan></text><path style="fill:#fff;fill-opacity:1;stroke:#000;stroke-width:2.671875;stroke-miterlimit:4;stroke-opacity:1;stroke-dasharray:none" id="path3791-6-7" d="m 273.14816,245.48337 c 0,6.90356 -5.59644,12.5 -12.5,12.5 -6.90356,0 -12.5,-5.59644 -12.5,-12.5 0,-6.90356 5.59644,-12.5 12.5,-12.5 6.90356,0 12.5,5.59644 12.5,12.5 z" transform="matrix(1.122807,0,0,1.122807,-81.136813,557.94231)"/><path style="fill:#000;fill-opacity:1;stroke:none" id="path3791-6-5" d="m 273.14816,245.48337 c 0,6.90356 -5.59644,12.5 -12.5,12.5 -6.90356,0 -12.5,-5.59644 -12.5,-12.5 0,-6.90356 5.59644,-12.5 12.5,-12.5 6.90356,0 12.5,5.59644 12.5,12.5 z" transform="matrix(1.122807,0,0,1.122807,-81.084185,201.31073)"/><path style="fill:#fff;fill-opacity:1;stroke:#000;stroke-width:2.671875;stroke-miterlimit:4;stroke-opacity:1;stroke-dasharray:none" id="path3791-6-7-1" d="m 273.14816,245.48337 c 0,6.90356 -5.59644,12.5 -12.5,12.5 -6.90356,0 -12.5,-5.59644 -12.5,-12.5 0,-6.90356 5.59644,-12.5 12.5,-12.5 6.90356,0 12.5,5.59644 12.5,12.5 z" transform="matrix(1.122807,0,0,1.122807,269.8424,201.31073)"/><path style="fill:none;stroke:#000;stroke-width:3;stroke-linecap:round;stroke-linejoin:round;stroke-miterlimit:4;stroke-opacity:1;stroke-dasharray:3,9;stroke-dashoffset:0" id="path4468" d="M 264.83655,862.46749 472.73129,417.73065"/><path style="fill:none;stroke:#000;stroke-width:3;stroke-linecap:round;stroke-linejoin:round;stroke-miterlimit:4;stroke-opacity:1;stroke-dasharray:3,9;stroke-dashoffset:0" id="path4468-9" d="M 172.73129,525.62538 637.20498,815.09907"/><text style="font-size:40px;font-style:normal;font-weight:400;line-height:125%;letter-spacing:0;word-spacing:0;fill:#000;fill-opacity:1;stroke:none;font-family:Sans" id="text4488" x="296.053" y="152.372" transform="translate(135.88919,431.1479)" xml:space="preserve"><tspan id="tspan4490" x="296.053" y="152.372">??</tspan></text><text style="font-size:40px;font-style:normal;font-weight:400;line-height:125%;letter-spacing:0;word-spacing:0;fill:#000;fill-opacity:1;stroke:none;font-family:Sans" id="text4492" x="348.32" y="911.152" xml:space="preserve"><tspan id="tspan4494" x="348.32" y="911.152" style="font-size:32px;font-weight:700;-inkscape-font-specification:Sans Bold">XOR</tspan></text></g></svg>